<?xml version="1.0" encoding="utf-8"?>
<!-- Generator: Adobe Illustrator 16.0.0, SVG Export Plug-In . SVG Version: 6.00 Build 0)  -->
<!DOCTYPE svg PUBLIC "-//W3C//DTD SVG 1.1//EN" "http://www.w3.org/Graphics/SVG/1.1/DTD/svg11.dtd">
<svg version="1.1" id="Layer_1" xmlns="http://www.w3.org/2000/svg" xmlns:xlink="http://www.w3.org/1999/xlink" x="0px" y="0px"
	 width="51px" height="51px" viewBox="0 0 51 51" enable-background="new 0 0 51 51" xml:space="preserve">
<title>Group</title>
<desc>Created with Sketch.</desc>
<g id="Page-1">
	<g id="Tablet-Portrait" transform="translate(-71.000000, -960.000000)">
		<g id="noun_353054_cc" transform="translate(71.000000, 960.000000)">
			<g id="Group">
				<g id="Shape">
					<path fill="#12100B" d="M25.5,0C11.39,0,0,11.39,0,25.5C0,39.609,11.39,51,25.5,51C39.609,51,51,39.609,51,25.5
						C51,11.39,39.609,0,25.5,0L25.5,0z M25.5,46.75c-11.73,0-21.25-9.52-21.25-21.25c0-11.73,9.52-21.25,21.25-21.25
						c11.73,0,21.25,9.52,21.25,21.25C46.75,37.23,37.23,46.75,25.5,46.75L25.5,46.75z"/>
					<polygon fill="#E23340" points="22.667,28.561 16.15,22.1 12.183,26.066 22.667,36.606 38.816,20.4 34.85,16.434 					"/>
				</g>
			</g>
		</g>
	</g>
</g>
</svg>
