<?xml version="1.0" encoding="UTF-8" standalone="no"?>
<svg width="51px" height="51px" viewBox="0 0 51 51" version="1.1" xmlns="http://www.w3.org/2000/svg" xmlns:xlink="http://www.w3.org/1999/xlink">
    <!-- Generator: Sketch 3.8.2 (29753) - http://www.bohemiancoding.com/sketch -->
    <title>Group</title>
    <desc>Created with Sketch.</desc>
    <defs></defs>
    <g id="Page-1" stroke="none" stroke-width="1" fill="none" fill-rule="evenodd">
        <g id="Tablet-Portrait" transform="translate(-71.000000, -960.000000)">
            <g id="noun_353054_cc" transform="translate(71.000000, 960.000000)">
                <g id="Group">
                    <g id="Shape">
                        <path d="M25.5,0 C11.39,0 0,11.39 0,25.5 C0,39.61 11.39,51 25.5,51 C39.61,51 51,39.61 51,25.5 C51,11.39 39.61,0 25.5,0 L25.5,0 Z M25.5,46.75 C13.77,46.75 4.25,37.23 4.25,25.5 C4.25,13.77 13.77,4.25 25.5,4.25 C37.23,4.25 46.75,13.77 46.75,25.5 C46.75,37.23 37.23,46.75 25.5,46.75 L25.5,46.75 Z" fill="#12100B"></path>
                        <polygon fill="#26A4F0" points="22.6666667 28.56 16.15 22.1 12.1833333 26.0666667 22.6666667 36.6066667 38.8166667 20.4 34.85 16.4333333"></polygon>
                    </g>
                </g>
            </g>
        </g>
    </g>
</svg>