<svg xmlns="http://www.w3.org/2000/svg" viewBox="0 0 241.71 67.43"><defs><style>.cls-1{fill:#323f47;}.cls-2{fill:#e23340;}.cls-3{fill:#fff;}</style></defs><title>Asset 2</title><g id="Layer_2" data-name="Layer 2"><g id="Layer_1-2" data-name="Layer 1"><path class="cls-1" d="M73,59.4h3.21V64a10,10,0,0,1-1.5.36,11.33,11.33,0,0,1-1.77.12,4.25,4.25,0,0,1-3.28-1.26,5,5,0,0,1-1.16-3.51A5.34,5.34,0,0,1,69,57.13a3.92,3.92,0,0,1,1.67-1.66,5.43,5.43,0,0,1,2.57-.58,7,7,0,0,1,2.77.55l-.45,1a6,6,0,0,0-2.39-.53,3.37,3.37,0,0,0-2.59,1,3.87,3.87,0,0,0-.93,2.74,4,4,0,0,0,.9,2.8,3.39,3.39,0,0,0,2.6,1A7.47,7.47,0,0,0,75,63.2V60.45H73Z"/><path class="cls-1" d="M85.59,60.81a3.84,3.84,0,0,1-.86,2.67,3,3,0,0,1-2.39,1A3.18,3.18,0,0,1,80.67,64a2.89,2.89,0,0,1-1.12-1.27,4.41,4.41,0,0,1-.39-1.92A3.83,3.83,0,0,1,80,58.16a3,3,0,0,1,2.39-.95,3,3,0,0,1,2.34,1A3.8,3.8,0,0,1,85.59,60.81Zm-5.26,0a3.27,3.27,0,0,0,.52,2,2,2,0,0,0,3,0,3.25,3.25,0,0,0,.52-2,3.15,3.15,0,0,0-.52-2,1.84,1.84,0,0,0-1.53-.66Q80.33,58.17,80.33,60.81Z"/><path class="cls-1" d="M94.76,60.81a3.84,3.84,0,0,1-.86,2.67,3,3,0,0,1-2.39,1A3.18,3.18,0,0,1,89.83,64a2.89,2.89,0,0,1-1.12-1.27,4.41,4.41,0,0,1-.39-1.92,3.83,3.83,0,0,1,.85-2.65,3,3,0,0,1,2.39-.95,3,3,0,0,1,2.34,1A3.8,3.8,0,0,1,94.76,60.81Zm-5.26,0a3.27,3.27,0,0,0,.52,2,2,2,0,0,0,3,0,3.25,3.25,0,0,0,.52-2,3.15,3.15,0,0,0-.52-2,1.84,1.84,0,0,0-1.53-.66Q89.5,58.17,89.5,60.81Z"/><path class="cls-1" d="M100.34,64.43a2.54,2.54,0,0,1-2.11-.94,4.17,4.17,0,0,1-.75-2.66,4.22,4.22,0,0,1,.75-2.67,2.8,2.8,0,0,1,4.27.07h.08c0-.08,0-.25-.05-.51s0-.43,0-.52V54.43h1.14V64.3h-.92l-.17-.93h-.05A2.46,2.46,0,0,1,100.34,64.43Zm.18-.95a1.88,1.88,0,0,0,1.52-.57,2.89,2.89,0,0,0,.48-1.86v-.21a3.41,3.41,0,0,0-.49-2.07,1.82,1.82,0,0,0-1.53-.62,1.56,1.56,0,0,0-1.36.7,3.51,3.51,0,0,0-.48,2,3.35,3.35,0,0,0,.48,2A1.6,1.6,0,0,0,100.52,63.49Z"/><path class="cls-1" d="M115.05,58.22H113.3V64.3h-1.14V58.22h-1.22v-.53l1.22-.39v-.4a2.83,2.83,0,0,1,.55-1.9,2.16,2.16,0,0,1,1.71-.63,4.16,4.16,0,0,1,1.35.24l-.3.9a3.43,3.43,0,0,0-1-.19,1,1,0,0,0-.86.38,2.06,2.06,0,0,0-.28,1.21v.45h1.76Z"/><path class="cls-1" d="M123.67,60.81a3.84,3.84,0,0,1-.86,2.67,3,3,0,0,1-2.39,1,3.18,3.18,0,0,1-1.68-.44,2.89,2.89,0,0,1-1.12-1.27,4.41,4.41,0,0,1-.39-1.92,3.83,3.83,0,0,1,.85-2.65,3,3,0,0,1,2.39-.95,3,3,0,0,1,2.34,1A3.8,3.8,0,0,1,123.67,60.81Zm-5.26,0a3.27,3.27,0,0,0,.52,2,2,2,0,0,0,3,0,3.25,3.25,0,0,0,.52-2,3.15,3.15,0,0,0-.52-2,1.84,1.84,0,0,0-1.53-.66Q118.41,58.17,118.41,60.81Z"/><path class="cls-1" d="M132.84,60.81a3.84,3.84,0,0,1-.86,2.67,3,3,0,0,1-2.39,1,3.18,3.18,0,0,1-1.68-.44,2.89,2.89,0,0,1-1.12-1.27,4.41,4.41,0,0,1-.39-1.92,3.83,3.83,0,0,1,.85-2.65,3,3,0,0,1,2.39-.95,3,3,0,0,1,2.34,1A3.8,3.8,0,0,1,132.84,60.81Zm-5.26,0a3.27,3.27,0,0,0,.52,2,2,2,0,0,0,3,0,3.25,3.25,0,0,0,.52-2,3.15,3.15,0,0,0-.52-2,1.84,1.84,0,0,0-1.53-.66Q127.58,58.17,127.58,60.81Z"/><path class="cls-1" d="M138.42,64.43a2.54,2.54,0,0,1-2.11-.94,4.17,4.17,0,0,1-.75-2.66,4.22,4.22,0,0,1,.75-2.67,2.8,2.8,0,0,1,4.27.07h.08c0-.08,0-.25-.05-.51s0-.43,0-.52V54.43h1.14V64.3h-.92l-.17-.93h-.05A2.46,2.46,0,0,1,138.42,64.43Zm.18-.95a1.88,1.88,0,0,0,1.52-.57,2.89,2.89,0,0,0,.48-1.86v-.21a3.41,3.41,0,0,0-.49-2.07,1.82,1.82,0,0,0-1.53-.62,1.56,1.56,0,0,0-1.36.7,3.51,3.51,0,0,0-.48,2,3.35,3.35,0,0,0,.48,2A1.6,1.6,0,0,0,138.6,63.49Z"/><path class="cls-1" d="M149.83,55.45A.69.69,0,0,1,151,54.9a.69.69,0,0,1,.2.55.7.7,0,0,1-.2.55.72.72,0,0,1-.95,0A.72.72,0,0,1,149.83,55.45Zm1.23,8.86h-1.14v-7h1.14Z"/><path class="cls-1" d="M159.11,62.38a1.77,1.77,0,0,1-.73,1.51,3.41,3.41,0,0,1-2,.54,4.65,4.65,0,0,1-2.19-.44V63a5.06,5.06,0,0,0,2.22.56,2.21,2.21,0,0,0,1.26-.28.88.88,0,0,0,.39-.75.85.85,0,0,0-.38-.7,5.84,5.84,0,0,0-1.34-.65,7.64,7.64,0,0,1-1.38-.65,1.8,1.8,0,0,1-.59-.61,1.66,1.66,0,0,1-.19-.82,1.57,1.57,0,0,1,.7-1.35,3.26,3.26,0,0,1,1.92-.5,5.31,5.31,0,0,1,2.22.47l-.39.91a5,5,0,0,0-1.91-.45,2.09,2.09,0,0,0-1.08.23.69.69,0,0,0-.37.62.77.77,0,0,0,.32.63,6.83,6.83,0,0,0,1.48.7,6.43,6.43,0,0,1,1.29.6,1.89,1.89,0,0,1,.61.63A1.69,1.69,0,0,1,159.11,62.38Z"/><path class="cls-1" d="M171.08,64.3l-.22-1h-.05a2.93,2.93,0,0,1-1,.89,3.2,3.2,0,0,1-1.3.23,2.29,2.29,0,0,1-1.61-.54,2,2,0,0,1-.58-1.52q0-2.12,3.34-2.22l1.18,0v-.41a1.7,1.7,0,0,0-.34-1.17,1.41,1.41,0,0,0-1.1-.38,3.25,3.25,0,0,0-1,.17,8.59,8.59,0,0,0-.92.37l-.35-.86a5.17,5.17,0,0,1,1.15-.44,5,5,0,0,1,1.23-.16,2.73,2.73,0,0,1,1.88.56,2.29,2.29,0,0,1,.62,1.78V64.3Zm-2.36-.79a2.11,2.11,0,0,0,1.51-.52,1.92,1.92,0,0,0,.55-1.47V60.9l-1,0a3.73,3.73,0,0,0-1.75.38,1.15,1.15,0,0,0-.55,1.06,1.05,1.05,0,0,0,.33.84A1.37,1.37,0,0,0,168.73,63.51Z"/><path class="cls-1" d="M183.35,64.43a2.53,2.53,0,0,1-2.16-1h-.08l0,.26a8.65,8.65,0,0,1,.05.88v2.86H180V57.34H181l.15,1h.05a2.46,2.46,0,0,1,.94-.83,2.84,2.84,0,0,1,1.23-.25,2.55,2.55,0,0,1,2.11.94,4.16,4.16,0,0,1,.75,2.66,4.2,4.2,0,0,1-.76,2.67A2.54,2.54,0,0,1,183.35,64.43Zm-.19-6.27a1.79,1.79,0,0,0-1.5.58,3,3,0,0,0-.47,1.83v.22a3.48,3.48,0,0,0,.47,2,1.78,1.78,0,0,0,1.52.63,1.57,1.57,0,0,0,1.37-.71,3.44,3.44,0,0,0,.49-2,3.28,3.28,0,0,0-.49-2A1.62,1.62,0,0,0,183.16,58.17Z"/><path class="cls-1" d="M192.6,57.21a3.94,3.94,0,0,1,.82.08l-.14,1.05a3.35,3.35,0,0,0-.75-.09,1.86,1.86,0,0,0-1,.3,2.07,2.07,0,0,0-.74.84,2.64,2.64,0,0,0-.27,1.19V64.3h-1.14v-7h.94l.13,1.28h.05a3,3,0,0,1,.95-1A2.13,2.13,0,0,1,192.6,57.21Z"/><path class="cls-1" d="M195.93,55.45a.69.69,0,0,1,1.14-.55.69.69,0,0,1,.2.55.7.7,0,0,1-.2.55.72.72,0,0,1-.95,0A.72.72,0,0,1,195.93,55.45Zm1.23,8.86H196v-7h1.14Z"/><path class="cls-1" d="M205.42,64.3V59.85a1.83,1.83,0,0,0-.38-1.27,1.52,1.52,0,0,0-1.18-.42,1.9,1.9,0,0,0-1.56.59,3.06,3.06,0,0,0-.49,1.93V64.3h-1.14v-7h.92l.17,1h.06a2.15,2.15,0,0,1,.91-.8,2.91,2.91,0,0,1,1.29-.28,2.59,2.59,0,0,1,1.9.62,2.64,2.64,0,0,1,.62,1.94V64.3Z"/><path class="cls-1" d="M212.8,64.43a3,3,0,0,1-2.34-.92,3.81,3.81,0,0,1-.84-2.65,3.92,3.92,0,0,1,.85-2.7,3.07,3.07,0,0,1,2.42-.95,4.91,4.91,0,0,1,1,.1,3.41,3.41,0,0,1,.82.27l-.35,1a4.42,4.42,0,0,0-1.5-.33,1.82,1.82,0,0,0-1.56.66,3.26,3.26,0,0,0-.5,2,3.19,3.19,0,0,0,.5,1.93,1.74,1.74,0,0,0,1.49.67,4.3,4.3,0,0,0,1.81-.41v1A3.87,3.87,0,0,1,212.8,64.43Z"/><path class="cls-1" d="M217.45,55.45a.69.69,0,0,1,1.14-.55.69.69,0,0,1,.2.55.7.7,0,0,1-.2.55.72.72,0,0,1-.95,0A.72.72,0,0,1,217.45,55.45Zm1.23,8.86h-1.14v-7h1.14Z"/><path class="cls-1" d="M225.5,64.43a2.53,2.53,0,0,1-2.16-1h-.08l0,.26a8.65,8.65,0,0,1,.05.88v2.86H222.2V57.34h.94l.15,1h.05a2.46,2.46,0,0,1,.94-.83,2.84,2.84,0,0,1,1.23-.25,2.55,2.55,0,0,1,2.11.94,4.16,4.16,0,0,1,.75,2.66,4.2,4.2,0,0,1-.76,2.67A2.54,2.54,0,0,1,225.5,64.43Zm-.19-6.27a1.79,1.79,0,0,0-1.5.58,3,3,0,0,0-.47,1.83v.22a3.48,3.48,0,0,0,.47,2,1.78,1.78,0,0,0,1.52.63,1.57,1.57,0,0,0,1.37-.71,3.44,3.44,0,0,0,.49-2,3.28,3.28,0,0,0-.49-2A1.62,1.62,0,0,0,225.31,58.17Z"/><path class="cls-1" d="M232.64,64.3h-1.14V54.43h1.14Z"/><path class="cls-1" d="M239.11,64.43a3.21,3.21,0,0,1-2.46-.95,3.66,3.66,0,0,1-.89-2.61,4,4,0,0,1,.83-2.67,2.78,2.78,0,0,1,2.25-1,2.71,2.71,0,0,1,2.09.85,3.25,3.25,0,0,1,.78,2.29V61h-4.77a2.67,2.67,0,0,0,.6,1.8,2.1,2.1,0,0,0,1.62.62,5.51,5.51,0,0,0,1.06-.1,6.14,6.14,0,0,0,1.17-.38v1a5.43,5.43,0,0,1-1.08.35A6.22,6.22,0,0,1,239.11,64.43Zm-.29-6.29a1.66,1.66,0,0,0-1.29.53,2.47,2.47,0,0,0-.56,1.47h3.55a2.27,2.27,0,0,0-.45-1.49A1.55,1.55,0,0,0,238.82,58.14Z"/><path class="cls-1" d="M68.29,39.33q0-.82.09-1.91t.25-2.31q.16-1.21.37-2.47t.46-2.4q.24-1.14.49-2.09a13.25,13.25,0,0,1,.49-1.57,3.7,3.7,0,0,1,.3-.65,1.31,1.31,0,0,1,.35-.38,1.14,1.14,0,0,1,.49-.19,4.62,4.62,0,0,1,.72,0,4.69,4.69,0,0,1,.76,0,.6.6,0,0,1,.4.22,1,1,0,0,1,.16.51c0,.22,0,.53,0,.92v1.67q0,1,0,1.93h.21l.84-1.67a10.91,10.91,0,0,1,1.08-1.73,6.44,6.44,0,0,1,1.4-1.35A3.08,3.08,0,0,1,79,25.3a2,2,0,0,1,.69.12,1.81,1.81,0,0,1,.59.35,1.64,1.64,0,0,1,.4.55,1.75,1.75,0,0,1,.15.74,6,6,0,0,1-.09.89q-.09.57-.21,1.2t-.21,1.21a6.45,6.45,0,0,0-.09,1,4.08,4.08,0,0,0,.13,1.12,2.09,2.09,0,0,0,.35.72,1.21,1.21,0,0,0,.49.38,1.49,1.49,0,0,0,.57.11,4.5,4.5,0,0,0,1.74-.37,11.26,11.26,0,0,0,1.64-.84,15.68,15.68,0,0,0,1.72-1.23l-.28,4.37-1.1.71a14.16,14.16,0,0,1-1.32.74,9.82,9.82,0,0,1-1.46.58,5.18,5.18,0,0,1-1.54.23,4,4,0,0,1-2.26-.57,4.15,4.15,0,0,1-1.36-1.49,7.57,7.57,0,0,1-.75-2.07q-.24-1.15-.39-2.33h-.3l-3.34,9.32a12,12,0,0,1-.5,1.2,4,4,0,0,1-.48.78,1.41,1.41,0,0,1-.52.42,1.53,1.53,0,0,1-.62.12,2,2,0,0,1-2-1.21,4.21,4.21,0,0,1-.34-1.25A12.25,12.25,0,0,1,68.29,39.33Z"/><path class="cls-1" d="M90,43.23a7,7,0,0,1-3.07-.63,6.35,6.35,0,0,1-2.19-1.71,7.29,7.29,0,0,1-1.32-2.48,9.89,9.89,0,0,1-.44-3,13.17,13.17,0,0,1,.83-4.5,12,12,0,0,1,1.05-2.14A8.54,8.54,0,0,1,86.32,27a6.87,6.87,0,0,1,1.91-1.23,5.84,5.84,0,0,1,2.34-.46,5.48,5.48,0,0,1,1.94.34,4.74,4.74,0,0,1,1.56.94,4.26,4.26,0,0,1,1,1.47A4.78,4.78,0,0,1,95.49,30a5.2,5.2,0,0,1-.57,2.32,8.45,8.45,0,0,1-1.58,2.19,11.12,11.12,0,0,1-2.4,1.83,12.85,12.85,0,0,1-3,1.25,5.93,5.93,0,0,0,.55.84,2.53,2.53,0,0,0,.55.52,1.82,1.82,0,0,0,.59.26,2.8,2.8,0,0,0,.66.08,7,7,0,0,0,2.36-.45,15.41,15.41,0,0,0,2.42-1.12,20.49,20.49,0,0,0,2.22-1.47,19.14,19.14,0,0,0,1.77-1.5l2.41,2.5a24.69,24.69,0,0,1-3.49,3q-.8.56-1.73,1.1a15.62,15.62,0,0,1-1.94,1,13.43,13.43,0,0,1-2.11.67A9.82,9.82,0,0,1,90,43.23Zm-2.48-8.78A3.7,3.7,0,0,0,89,34.11a6.58,6.58,0,0,0,1.48-.89A6.16,6.16,0,0,0,91.58,32,2.1,2.1,0,0,0,92,30.81a2.77,2.77,0,0,0-.31-1.38.89.89,0,0,0-.76-.54,2.92,2.92,0,0,0-1.37.3,3,3,0,0,0-1,.78A4,4,0,0,0,88,31a7.34,7.34,0,0,0-.36,1.22,9.18,9.18,0,0,0-.16,1.2C87.5,33.85,87.49,34.18,87.49,34.46Z"/><path class="cls-1" d="M97,36.06q1-.9,1.7-1.49t1.12-1.09a12.45,12.45,0,0,0,.85-1l.91-1.2,1.27-1.69q.75-1,1.94-2.49a6.52,6.52,0,0,1,.54-.65,4.16,4.16,0,0,1,.66-.57,3.44,3.44,0,0,1,.8-.41,2.87,2.87,0,0,1,1-.16,3.83,3.83,0,0,1,1.38.2,1.7,1.7,0,0,1,.71.48,1.15,1.15,0,0,1,.26.59,4.43,4.43,0,0,1,0,.53,1.85,1.85,0,0,1-.36,1,10.35,10.35,0,0,1-.78,1q-.43.51-.81.92a1.92,1.92,0,0,0-.44.63,6.14,6.14,0,0,0,.08,1.06,7.88,7.88,0,0,0,.22.93l.29,1q.15.51.29,1.19a14.5,14.5,0,0,1,.22,1.55q.08.88.08,2.07a11.16,11.16,0,0,1,1.45-.81l1.62-.76q.84-.39,1.73-.87a14.11,14.11,0,0,0,1.78-1.15l0,4.18a17.37,17.37,0,0,1-2.68,1.68,26.42,26.42,0,0,1-3.19,1.38,24.33,24.33,0,0,1-3.38.94,16.38,16.38,0,0,1-3.24.35A9.75,9.75,0,0,1,101,43.2a5.33,5.33,0,0,1-1.67-.64,3.55,3.55,0,0,1-1.17-1.15,3.82,3.82,0,0,1-.54-1.72,3.72,3.72,0,0,1-.51.07l-.5,0-.56,0a.92.92,0,0,1-.45-.14.82.82,0,0,1-.3-.39,2.09,2.09,0,0,1-.11-.78,1.62,1.62,0,0,1,.22-.83,3.36,3.36,0,0,1,.52-.68,5.62,5.62,0,0,1,.6-.52Zm2.39,2.39a.75.75,0,0,1,.5.28l.62.62a4.72,4.72,0,0,0,.82.62,2,2,0,0,0,1.06.28A2.64,2.64,0,0,0,103.6,40a2,2,0,0,0,.76-.64,2.51,2.51,0,0,0,.39-.93,5.36,5.36,0,0,0,.11-1.11,8.22,8.22,0,0,0-.07-1c0-.35-.1-.68-.17-1s-.14-.62-.22-.9l-.21-.72Z"/><path class="cls-1" d="M128.53,39q-1.79,1-3.19,1.83t-2.49,1.31a14.36,14.36,0,0,1-1.94.78,5.27,5.27,0,0,1-1.54.26,3.91,3.91,0,0,1-2.5-.86A6.48,6.48,0,0,1,115,39.9,15.47,15.47,0,0,1,114,36a33.32,33.32,0,0,1-.36-5.17q0-1.12.09-2.39t.26-2.52c-.37,0-.66-.1-.87-.14l-.65-.13-.88-.14L110,25.3a1.64,1.64,0,0,1-.69-.21,1,1,0,0,1-.35-.37,1.16,1.16,0,0,1-.13-.45c0-.16,0-.29,0-.4a.62.62,0,0,1,.36-.57,3,3,0,0,1,.93-.29,8.67,8.67,0,0,1,1.25-.1h1.31l1.12,0a3.74,3.74,0,0,0,.68,0A42.17,42.17,0,0,1,115.75,18a27.71,27.71,0,0,1,1.74-4.2,11.58,11.58,0,0,1,2.1-3A3.41,3.41,0,0,1,122,9.76a2.56,2.56,0,0,1,1.47.45,3.93,3.93,0,0,1,1.13,1.2,6.1,6.1,0,0,1,.72,1.75,8.5,8.5,0,0,1,.25,2.08,7.8,7.8,0,0,1-.26,1.93,14.64,14.64,0,0,1-.71,2.07,21.85,21.85,0,0,1-1.06,2.14q-.61,1.08-1.28,2.15l.56,0,.91,0,1.11,0,1.16,0,1,0,.8,0a.6.6,0,0,1,.54.37,2.11,2.11,0,0,1,.17.9,1.52,1.52,0,0,1-.37,1.07,1.1,1.1,0,0,1-.82.41h-7.17q-.54.75-1.09,1.47t-1,1.3q-.07,1.16-.13,2.28,0,.49,0,1c0,.34,0,.68,0,1s0,.66,0,1,0,.6,0,.86a6.59,6.59,0,0,0,.19,1.7,3,3,0,0,0,.54,1.13,2,2,0,0,0,.87.63,3.19,3.19,0,0,0,1.15.2,3.35,3.35,0,0,0,1-.19,10.74,10.74,0,0,0,1.29-.51q.7-.33,1.48-.78t1.53-1q.76-.53,1.45-1.12a13.67,13.67,0,0,0,1.25-1.2Zm-6-23.65a4.21,4.21,0,0,0,0-.46,1.72,1.72,0,0,0-.12-.48.91.91,0,0,0-.29-.37.89.89,0,0,0-.55-.15q-.49,0-1,.86a12.76,12.76,0,0,0-1,2.2q-.46,1.34-.86,2.94T118,23.06l.56.07.58.07q.56-1,1.17-2.06t1.09-2.19q.49-1.07.8-2A5,5,0,0,0,122.55,15.4Z"/><path class="cls-1" d="M146.73,38.66a17.26,17.26,0,0,1-1.15,1.4A14.1,14.1,0,0,1,144,41.59,10.11,10.11,0,0,1,142,42.82a4.63,4.63,0,0,1-2.05.5,2.84,2.84,0,0,1-2.05-.79,6.48,6.48,0,0,1-1.42-2.31,9,9,0,0,1-1.1,1.07,9.87,9.87,0,0,1-1.43,1,9.07,9.07,0,0,1-1.62.72,5.27,5.27,0,0,1-1.68.28,4.38,4.38,0,0,1-1.75-.36,4.52,4.52,0,0,1-1.5-1,5.12,5.12,0,0,1-1-1.66A5.92,5.92,0,0,1,126,38a11.17,11.17,0,0,1,.39-2.88,15.74,15.74,0,0,1,1.08-2.89,16.44,16.44,0,0,1,1.63-2.66,13.1,13.1,0,0,1,2.06-2.19,10.07,10.07,0,0,1,2.36-1.48,6.19,6.19,0,0,1,2.53-.55,1.17,1.17,0,0,1,.67.17,1.67,1.67,0,0,1,.4.38l.31.42a.86.86,0,0,0,.37.3,1.7,1.7,0,0,0,.46.12,3.82,3.82,0,0,0,.48,0h.84a2.34,2.34,0,0,1,.52.06.89.89,0,0,1,.43.24,1.24,1.24,0,0,1,.29.52,3.25,3.25,0,0,1,.1.92,11.85,11.85,0,0,1-.19,2q-.19,1.09-.41,2.24t-.41,2.3a13.53,13.53,0,0,0-.19,2.18,4.65,4.65,0,0,0,.16,1.37.65.65,0,0,0,.68.5,2,2,0,0,0,.82-.2,5.06,5.06,0,0,0,.87-.51,9.79,9.79,0,0,0,.88-.72q.44-.4.83-.83a28.62,28.62,0,0,0,1.85-2.28Zm-16-1.48a6.09,6.09,0,0,0,.07.91,2.67,2.67,0,0,0,.23.79,1.54,1.54,0,0,0,.45.56,1.13,1.13,0,0,0,.71.21,1.68,1.68,0,0,0,1.25-.6,5.82,5.82,0,0,0,1-1.44,10.21,10.21,0,0,0,.66-1.74,10.61,10.61,0,0,0,.33-1.5l1.14-5.49a3.18,3.18,0,0,0-1.49.38,5.56,5.56,0,0,0-1.37,1,9.32,9.32,0,0,0-1.19,1.5,11.58,11.58,0,0,0-.93,1.76,11.07,11.07,0,0,0-.61,1.86A7.83,7.83,0,0,0,130.77,37.18Z"/><path class="cls-1" d="M157.73,26.52a11.26,11.26,0,0,1-.11,1.37q-.11.87-.29,1.91t-.38,2.14L156.56,34q-.18,1-.29,1.67a7.81,7.81,0,0,0-.11,1c0,.35,0,.67,0,1a3.31,3.31,0,0,0,.11.77,1,1,0,0,0,.29.5.82.82,0,0,0,.57.18,3.11,3.11,0,0,0,1-.21,9.48,9.48,0,0,0,1.25-.55q.66-.35,1.35-.79t1.32-.92q.63-.49,1.14-1a7.42,7.42,0,0,0,.83-.89c0,.41,0,.78,0,1.12s0,.66,0,1,0,.62,0,.94,0,.68,0,1.08a10.59,10.59,0,0,1-1,.88q-.61.47-1.34.93t-1.57.9a17.25,17.25,0,0,1-1.67.76,12.66,12.66,0,0,1-1.66.52,6.62,6.62,0,0,1-1.53.2,2.47,2.47,0,0,1-1.21-.28,2.65,2.65,0,0,1-.87-.79,4.83,4.83,0,0,1-.62-1.2,12.36,12.36,0,0,1-.44-1.56,15.55,15.55,0,0,1-1.42,1.62,11.69,11.69,0,0,1-1.52,1.28,7.47,7.47,0,0,1-1.57.85,4.25,4.25,0,0,1-1.54.31,3.25,3.25,0,0,1-1.16-.21,2.38,2.38,0,0,1-1-.69,3.49,3.49,0,0,1-.66-1.28,6.83,6.83,0,0,1-.24-2,24.59,24.59,0,0,1,.35-3.66q.34-2.22.85-5.08c0-.19.07-.44.14-.76s.16-.66.28-1a10.23,10.23,0,0,1,.44-1.14,5.38,5.38,0,0,1,.62-1,3.14,3.14,0,0,1,.83-.77,2.12,2.12,0,0,1,1.07-.32,3.73,3.73,0,0,1,1.42.25q.43.21.43.53-.17,1-.36,2.2t-.4,2.45q-.21,1.23-.39,2.4L148,35.24q-.15.92-.23,1.48t-.08.58a3.07,3.07,0,0,0,.07.64,2.06,2.06,0,0,0,.2.55,1.15,1.15,0,0,0,.34.39.81.81,0,0,0,.49.15,1.87,1.87,0,0,0,.84-.21,3,3,0,0,0,.81-.62,4.14,4.14,0,0,0,.68-1,5.17,5.17,0,0,0,.45-1.33l1.85-9.49q.09-.45.76-.76a3.52,3.52,0,0,1,1.5-.31,2.92,2.92,0,0,1,1.51.34A1,1,0,0,1,157.73,26.52Z"/><path class="cls-1" d="M161,39.33q0-.82.09-1.91t.25-2.31q.16-1.21.37-2.47t.46-2.4q.24-1.14.49-2.09a13.25,13.25,0,0,1,.49-1.57,3.7,3.7,0,0,1,.3-.65,1.31,1.31,0,0,1,.35-.38,1.14,1.14,0,0,1,.49-.19,4.62,4.62,0,0,1,.72,0,4.69,4.69,0,0,1,.76,0,.6.6,0,0,1,.4.22,1,1,0,0,1,.16.51c0,.22,0,.53,0,.92v1.67q0,1,0,1.93h.21l.84-1.67a10.91,10.91,0,0,1,1.08-1.73,6.44,6.44,0,0,1,1.4-1.35,3.08,3.08,0,0,1,1.81-.55,2,2,0,0,1,.69.12,1.81,1.81,0,0,1,.59.35,1.64,1.64,0,0,1,.4.55,1.75,1.75,0,0,1,.15.74,6,6,0,0,1-.09.89q-.09.57-.21,1.2T173,30.35a6.45,6.45,0,0,0-.09,1,4.08,4.08,0,0,0,.13,1.12,2.09,2.09,0,0,0,.35.72,1.21,1.21,0,0,0,.49.38,1.49,1.49,0,0,0,.57.11,4.5,4.5,0,0,0,1.74-.37,11.26,11.26,0,0,0,1.64-.84,15.68,15.68,0,0,0,1.72-1.23l-.28,4.37-1.1.71a14.16,14.16,0,0,1-1.32.74,9.82,9.82,0,0,1-1.46.58,5.18,5.18,0,0,1-1.54.23,4,4,0,0,1-2.26-.57,4.15,4.15,0,0,1-1.36-1.49,7.57,7.57,0,0,1-.75-2.07q-.24-1.15-.39-2.33h-.3l-3.34,9.32a12,12,0,0,1-.5,1.2,4,4,0,0,1-.48.78,1.41,1.41,0,0,1-.52.42,1.53,1.53,0,0,1-.62.12,2,2,0,0,1-2-1.21,4.21,4.21,0,0,1-.34-1.25A12.25,12.25,0,0,1,161,39.33Z"/><path class="cls-1" d="M195.87,38.66a17.26,17.26,0,0,1-1.15,1.4,14.1,14.1,0,0,1-1.62,1.53,10.11,10.11,0,0,1-1.92,1.23,4.63,4.63,0,0,1-2.05.5,2.84,2.84,0,0,1-2.05-.79,6.48,6.48,0,0,1-1.42-2.31,9,9,0,0,1-1.1,1.07,9.87,9.87,0,0,1-1.43,1,9.07,9.07,0,0,1-1.62.72,5.27,5.27,0,0,1-1.68.28,4.38,4.38,0,0,1-1.75-.36,4.52,4.52,0,0,1-1.5-1,5.12,5.12,0,0,1-1-1.66,5.92,5.92,0,0,1-.39-2.21,11.17,11.17,0,0,1,.39-2.88,15.74,15.74,0,0,1,1.08-2.89,16.44,16.44,0,0,1,1.63-2.66,13.1,13.1,0,0,1,2.06-2.19,10.07,10.07,0,0,1,2.36-1.48,6.19,6.19,0,0,1,2.53-.55,1.17,1.17,0,0,1,.67.17,1.67,1.67,0,0,1,.4.38l.31.42a.86.86,0,0,0,.37.3,1.7,1.7,0,0,0,.46.12,3.82,3.82,0,0,0,.48,0h.84a2.34,2.34,0,0,1,.52.06.89.89,0,0,1,.43.24,1.24,1.24,0,0,1,.29.52,3.25,3.25,0,0,1,.1.92,11.85,11.85,0,0,1-.19,2q-.19,1.09-.41,2.24t-.41,2.3a13.53,13.53,0,0,0-.19,2.18,4.65,4.65,0,0,0,.16,1.37.65.65,0,0,0,.68.5,2,2,0,0,0,.82-.2,5.06,5.06,0,0,0,.87-.51,9.79,9.79,0,0,0,.88-.72q.44-.4.83-.83A28.62,28.62,0,0,0,195,34.51Zm-16-1.48a6.09,6.09,0,0,0,.07.91,2.67,2.67,0,0,0,.23.79,1.54,1.54,0,0,0,.45.56,1.13,1.13,0,0,0,.71.21,1.68,1.68,0,0,0,1.25-.6,5.82,5.82,0,0,0,1-1.44,10.21,10.21,0,0,0,.66-1.74,10.61,10.61,0,0,0,.33-1.5l1.14-5.49a3.18,3.18,0,0,0-1.49.38,5.56,5.56,0,0,0-1.37,1,9.32,9.32,0,0,0-1.19,1.5,11.58,11.58,0,0,0-.93,1.76,11.07,11.07,0,0,0-.61,1.86A7.83,7.83,0,0,0,179.92,37.18Z"/><path class="cls-1" d="M192.91,39.33q0-1.23.15-2.85t.37-3.29q.22-1.67.5-3.22t.54-2.65a2.93,2.93,0,0,1,.79-1.44,2.18,2.18,0,0,1,1.6-.58,1.53,1.53,0,0,1,1.4.62,3,3,0,0,1,.39,1.64,6.68,6.68,0,0,1-.06.76c0,.32-.08.67-.14,1s-.12.77-.18,1.18-.12.78-.18,1.12-.1.64-.14.9a4.47,4.47,0,0,0-.06.51h.37l.36-.66.56-1.05.68-1.26.68-1.27q.32-.61.58-1.07l.39-.69a3.37,3.37,0,0,1,1.36-1.38,3.83,3.83,0,0,1,1.7-.37,1.72,1.72,0,0,1,1.49.79,3.72,3.72,0,0,1,.55,2.17,4.58,4.58,0,0,1-.08.69q-.08.49-.21,1.16L206,31.58q-.16.8-.29,1.64t-.21,1.66a15.07,15.07,0,0,0-.08,1.51,5.32,5.32,0,0,0,.29,1.91,1,1,0,0,0,.91.75,1.56,1.56,0,0,0,.64-.17,6.47,6.47,0,0,0,.79-.44,10,10,0,0,0,.86-.63l.87-.73q1-.88,2.07-2l.32,4.18-.93.71-1.56,1.16a13.81,13.81,0,0,1-1.65,1,10.3,10.3,0,0,1-1.79.75,6.61,6.61,0,0,1-2,.29q-1,0-1.73-1.49a10.54,10.54,0,0,1-.7-4.34A21.24,21.24,0,0,1,202,35q.15-1.3.37-2.79h-.3l-4.89,9.71a2.4,2.4,0,0,1-.84,1,2.07,2.07,0,0,1-1.08.28,2,2,0,0,1-2-1.21,4.21,4.21,0,0,1-.34-1.25A12.25,12.25,0,0,1,192.91,39.33Z"/><path class="cls-1" d="M225,39q-1.79,1-3.19,1.83t-2.49,1.31a14.36,14.36,0,0,1-1.94.78,5.27,5.27,0,0,1-1.54.26,3.91,3.91,0,0,1-2.5-.86,6.48,6.48,0,0,1-1.81-2.47A15.47,15.47,0,0,1,210.42,36a33.32,33.32,0,0,1-.36-5.17q0-1.12.09-2.39t.26-2.52c-.37,0-.66-.1-.87-.14l-.65-.13-.88-.14-1.54-.19a1.64,1.64,0,0,1-.69-.21,1,1,0,0,1-.35-.37,1.16,1.16,0,0,1-.13-.45c0-.16,0-.29,0-.4a.62.62,0,0,1,.36-.57,3,3,0,0,1,.93-.29,8.67,8.67,0,0,1,1.25-.1h1.31l1.12,0a3.74,3.74,0,0,0,.68,0A42.17,42.17,0,0,1,212.21,18a27.71,27.71,0,0,1,1.74-4.2,11.58,11.58,0,0,1,2.1-3,3.41,3.41,0,0,1,2.39-1.11,2.56,2.56,0,0,1,1.47.45A3.93,3.93,0,0,1,221,11.4a6.1,6.1,0,0,1,.72,1.75,8.5,8.5,0,0,1,.25,2.08,7.8,7.8,0,0,1-.26,1.93,14.64,14.64,0,0,1-.71,2.07A21.85,21.85,0,0,1,220,21.38q-.61,1.08-1.28,2.15l.56,0,.91,0,1.11,0,1.16,0,1,0,.8,0a.6.6,0,0,1,.54.37,2.11,2.11,0,0,1,.17.9,1.52,1.52,0,0,1-.37,1.07,1.1,1.1,0,0,1-.82.41h-7.17q-.54.75-1.09,1.47t-1,1.3q-.07,1.16-.13,2.28,0,.49,0,1c0,.34,0,.68,0,1s0,.66,0,1,0,.6,0,.86a6.59,6.59,0,0,0,.19,1.7,3,3,0,0,0,.54,1.13,2,2,0,0,0,.87.63A3.19,3.19,0,0,0,217,39a3.35,3.35,0,0,0,1-.19,10.74,10.74,0,0,0,1.29-.51q.7-.33,1.48-.78t1.53-1q.76-.53,1.45-1.12a13.67,13.67,0,0,0,1.25-1.2ZM219,15.4a4.21,4.21,0,0,0,0-.46,1.72,1.72,0,0,0-.12-.48.91.91,0,0,0-.29-.37.89.89,0,0,0-.55-.15q-.49,0-1,.86a12.76,12.76,0,0,0-1,2.2q-.46,1.34-.86,2.94t-.74,3.12l.56.07.58.07q.56-1,1.17-2.06t1.09-2.19q.49-1.07.8-2A5,5,0,0,0,219,15.4Z"/><path class="cls-1" d="M223.06,36.06q1-.9,1.7-1.49t1.12-1.09a12.45,12.45,0,0,0,.85-1l.91-1.2,1.27-1.69q.75-1,1.94-2.49a6.52,6.52,0,0,1,.54-.65,4.16,4.16,0,0,1,.66-.57,3.44,3.44,0,0,1,.8-.41,2.87,2.87,0,0,1,1-.16,3.83,3.83,0,0,1,1.38.2,1.7,1.7,0,0,1,.71.48,1.15,1.15,0,0,1,.26.59,4.43,4.43,0,0,1,0,.53,1.85,1.85,0,0,1-.36,1,10.35,10.35,0,0,1-.78,1q-.43.51-.81.92a1.92,1.92,0,0,0-.44.63,6.14,6.14,0,0,0,.08,1.06,7.88,7.88,0,0,0,.22.93l.29,1q.15.51.29,1.19a14.5,14.5,0,0,1,.22,1.55q.08.88.08,2.07a11.16,11.16,0,0,1,1.45-.81l1.62-.76q.84-.39,1.73-.87a14.11,14.11,0,0,0,1.78-1.15l0,4.18a17.37,17.37,0,0,1-2.68,1.68,26.42,26.42,0,0,1-3.19,1.38,24.33,24.33,0,0,1-3.38.94,16.38,16.38,0,0,1-3.24.35,9.75,9.75,0,0,1-2.05-.21,5.33,5.33,0,0,1-1.67-.64,3.55,3.55,0,0,1-1.17-1.15,3.82,3.82,0,0,1-.54-1.72,3.72,3.72,0,0,1-.51.07l-.5,0-.56,0a.92.92,0,0,1-.45-.14.82.82,0,0,1-.3-.39,2.09,2.09,0,0,1-.11-.78,1.62,1.62,0,0,1,.22-.83,3.36,3.36,0,0,1,.52-.68,5.62,5.62,0,0,1,.6-.52Zm2.39,2.39a.75.75,0,0,1,.5.28l.63.62a4.72,4.72,0,0,0,.82.62,2,2,0,0,0,1.06.28,2.64,2.64,0,0,0,1.21-.24,2,2,0,0,0,.76-.64,2.51,2.51,0,0,0,.39-.93,5.36,5.36,0,0,0,.11-1.11,8.22,8.22,0,0,0-.07-1c0-.35-.1-.68-.17-1s-.14-.62-.22-.9l-.21-.72Z"/><path class="cls-2" d="M52.33,23.65a9.81,9.81,0,0,1-6.57-5.73A9.2,9.2,0,0,1,35.09,8.55a9.24,9.24,0,0,1,.14-1.31c-.26,0-.52-.1-.78-.16A9.33,9.33,0,0,1,27.77.34,28.58,28.58,0,1,0,56.66,23.79,9.78,9.78,0,0,1,52.33,23.65Z"/><path class="cls-3" d="M13.36,19.46h8.77V41.13H17.48V23.58H13.36Z"/><path class="cls-3" d="M35.79,27.91a3.92,3.92,0,0,0,.82-2.25,2.49,2.49,0,0,0-.71-1.81,2.45,2.45,0,0,0-1.83-.73q-2,0-3.87,2.91l-3.87-2.29a12,12,0,0,1,3.33-3.57A8.17,8.17,0,0,1,34.27,19a7.44,7.44,0,0,1,4.93,1.78,6,6,0,0,1,2.12,4.85,6.52,6.52,0,0,1-.85,3.21,21,21,0,0,1-3.15,3.92l-3.91,4.06H42v4.34H26.69v-3.6L33,31A27.68,27.68,0,0,0,35.79,27.91Z"/><circle class="cls-2" cx="42.74" cy="7.63" r="1.96" transform="translate(32.15 49.73) rotate(-86.01)"/><circle class="cls-2" cx="39.16" cy="1.32" r="1.31" transform="translate(0.42 7.17) rotate(-10.51)"/><circle class="cls-2" cx="54.83" cy="14.13" r="1.16" transform="translate(-1.66 10.24) rotate(-10.51)"/></g></g></svg>